<?xml version="1.0" ?><!DOCTYPE svg  PUBLIC '-//W3C//DTD SVG 1.1//EN'  'http://www.w3.org/Graphics/SVG/1.1/DTD/svg11.dtd'><svg enable-background="new 0 0 512 512" height="512px" id="Layer_3" version="1.1" viewBox="0 0 512 512" width="512px" xml:space="preserve" xmlns="http://www.w3.org/2000/svg" xmlns:xlink="http://www.w3.org/1999/xlink"><g><g><path d="M159.5,219.8c3,1.3,6.6,0,7.9-3c15.5-35,50.3-57.6,88.6-57.6c38.3,0,73,22.6,88.6,57.6c1,2.2,3.2,3.6,5.5,3.6     c0.8,0,1.6-0.2,2.4-0.5c3-1.3,4.4-4.9,3-7.9c-17.5-39.3-56.5-64.7-99.5-64.7c-43,0-82.1,25.4-99.5,64.7     C155.1,214.9,156.5,218.4,159.5,219.8z"/><path d="M411.9,250.8C411.9,250.8,411.8,250.8,411.9,250.8c-23.8-13.9-32-44.5-18.4-68.3c0,0,0.1-0.1,0.1-0.1c1-1.9,1-4.1,0-6     c-1.1-1.8-3-3-5.2-3c-27.4-0.1-49.9-22.5-50-50c0-2.1-1.2-4.1-3-5.2c-1.8-1.1-4.2-1.1-6,0c-23.8,13.6-54.4,5.4-68.2-18.3     c-1.1-1.8-3-3-5.2-3c0,0,0,0,0,0c-2.1,0-4.1,1.1-5.2,2.9c0,0-0.1,0.1-0.1,0.1c-13.8,23.7-44.4,31.8-68.2,18.3     c0,0-0.1-0.1-0.1-0.1c-1.9-1-4.1-1-6,0c-1.8,1.1-3,3-3,5.2c-0.1,27.4-22.5,49.9-50,50c-2.1,0-4.1,1.2-5.2,3c-1.1,1.8-1.1,4.2,0,6     c13.6,23.8,5.4,54.4-18.3,68.2c-1.8,1.1-3,3-3,5.2c0,2.1,1.1,4.1,2.9,5.2c0,0,0.1,0.1,0.1,0.1c23.7,13.8,31.9,44.4,18.3,68.2     c0,0-0.1,0.1-0.1,0.1c-1,1.9-1,4.1,0,6c1.1,1.8,3,3,5.2,3c27.4,0.1,49.9,22.5,50,50c0,2.1,1.2,4.1,3,5.2c1.8,1.1,4.2,1.1,6,0     c23.8-13.6,54.4-5.4,68.2,18.3c1.1,1.8,3,3,5.2,3c0,0,0,0,0,0c2.1,0,4.1-1.1,5.2-2.9c0,0,0.1-0.1,0.1-0.1     c13.8-23.7,44.4-31.9,68.2-18.3c0,0,0.1,0.1,0.1,0.1c1.9,1,4.1,1,6,0c1.8-1.1,3-3,3-5.2c0.1-27.4,22.5-49.9,50-50     c2.1,0,4.1-1.2,5.2-3c1.1-1.8,1.1-4.2,0-6c-13.6-23.8-5.4-54.4,18.3-68.2l0.1,0c1.8-1.1,3-3,3-5.2     C414.9,253.9,413.8,251.9,411.9,250.8z M379.2,327.2c-26.7,4.1-48,25.3-52.1,52.1c-25.2-9.8-54.2-2.1-71.2,19.1     c-12-15-30.2-23.3-48.7-23.3c-7.6,0-15.2,1.4-22.5,4.2c-4.1-26.7-25.3-48-52.1-52.1c9.8-25.2,2.1-54.2-19.1-71.2     c21.1-16.9,28.9-46,19.1-71.2c26.7-4.1,48-25.3,52.1-52.1c25.2,9.8,54.3,2.1,71.2-19.1c16.9,21.1,46,28.9,71.2,19.1     c4.1,26.7,25.3,48,52.1,52.1c-9.8,25.2-2.1,54.3,19.1,71.2C377.2,272.9,369.4,302,379.2,327.2z"/><path d="M367.2,253.6c-1.7-10.5-6.7-18.8-14.9-24.5c-17.3-12.1-43.5-9.2-57.6-6.4c-4.7,0.9-8.7,2.3-12.2,4h-52.9     c-3.5-1.7-7.5-3-12.2-4c-14.1-2.8-40.3-5.7-57.6,6.4c-8.2,5.7-13.2,14-14.9,24.5c-2.9,18.1,1.4,35,11.7,46.2     c0.1,0.5,0.2,1.1,0.5,1.6c17.7,38.6,56.6,63.5,99,63.5c43,0,82.1-25.4,99.5-64.7c0.1-0.3,0.2-0.5,0.3-0.8     C365.9,288.1,370,271.5,367.2,253.6z M265.1,244.4c-6.1-0.5-12.2-0.5-18.3,0c-0.8-1.9-1.8-3.9-3.1-5.8h24.4     C266.9,240.5,265.9,242.5,265.1,244.4z M156.6,255.4c1.2-7.3,4.4-12.7,9.9-16.5c6.4-4.5,15.9-6.7,27.3-6.7     c6.5,0,13.6,0.7,21.1,2.2c4.1,0.8,7.5,2,10.2,3.4c0.1,0.1,0.3,0.1,0.4,0.2c5.1,2.7,7.9,6.2,9.4,9.1c-1.3,1.3-2,3.2-1.7,5.2     c0.3,1.7,1.3,3.2,2.6,4.1c-6.3,24.6-25,42.5-46.8,44.1c-9.5,0.7-17.7-2.3-23.8-8.9C157.5,283.1,154.4,269.9,156.6,255.4z      M256,352.9c-31.9,0-61.5-15.8-79.4-41.4c3.2,0.7,6.5,1.1,9.9,1.1c1.2,0,2.3,0,3.5-0.1c27.8-2.1,51.5-25.1,58.2-56.2     c5.2-0.4,10.3-0.4,15.5,0c6.7,31.1,30.4,54.1,58.2,56.2c1.2,0.1,2.4,0.1,3.5,0.1c3.4,0,6.7-0.4,9.9-1.1     C317.5,337.1,288,352.9,256,352.9z M346.6,291.6c-6,6.5-14.2,9.6-23.8,8.9c-21.8-1.6-40.5-19.6-46.8-44.2     c1.4-0.9,2.4-2.3,2.6-4.1c0.3-2-0.4-3.9-1.7-5.2c2.3-4.5,7.7-10.3,19.9-12.7c20.8-4.1,38.4-2.5,48.4,4.5     c5.5,3.8,8.8,9.3,9.9,16.5C357.6,269.9,354.5,283.1,346.6,291.6z"/><path d="M268,296.8c-8.6,5-16.2,5.1-23.8,0.2c-2.8-1.8-6.5-1-8.3,1.8c-1.8,2.8-1,6.5,1.8,8.3c5.8,3.8,11.7,5.6,17.9,5.6     c6,0,12.2-1.8,18.5-5.5c2.9-1.7,3.8-5.3,2.2-8.2C274.5,296.1,270.9,295.1,268,296.8z"/></g></g></svg>